<svg id="Capa_1" enable-background="new 0 0 512 512" height="512" viewBox="0 0 512 512" width="512" xmlns="http://www.w3.org/2000/svg"><path d="m512 255.63v.37c0 8.6-.43 17.11-1.26 25.5-1.88 19.03-5.84 37.44-11.66 55.01-29.69 89.69-107.63 157.41-203.08 172.38-12.71 1.99-25.74 3.05-39 3.1-.33.01-.67.01-1 .01-2.34 0-4.67-.03-7-.09-12.18-.33-24.14-1.5-35.84-3.48-120.98-20.38-213.16-125.65-213.16-252.43 0-141.38 114.62-256 256-256 131.21 0 239.37 98.72 254.25 225.93 1.14 9.74 1.74 19.65 1.75 29.7z" fill="#fd9e27"/><path d="m512 255.63v.37c0 8.6-.43 17.11-1.26 25.5-1.88 19.03-5.84 37.44-11.66 55.01-29.69 89.69-107.63 157.41-203.08 172.38-12.71 1.99-25.74 3.05-39 3.1-.33.01-.67.01-1 .01-2.34 0-4.67-.03-7-.09-12.18-.33-24.14-1.5-35.84-3.48-.15-.15-141.45-141.45-141.45-141.45l13.16-62.03 26.49-52.38h34.8l47.98-29.27-38.7-38.72 202.36-102.44s74.33 74.32 74.5 74.48l10.26 1.62 67.69 67.69c1.14 9.74 1.74 19.65 1.75 29.7z" fill="#da7d00"/><path d="m226.143 174.795v72.159 6.275 150h60v-150-6.275-72.159z" fill="#06465e"/><path d="m256 174.795v228.434h30.143v-150-6.275-72.159z" fill="#022b3a"/><path d="m403.037 202.476v43.805h-39.967v25.368h39.967 24.949.419v-69.173z" fill="#06465e"/><path d="m434.377 151.817-6.821 15.752-2.619 6.049c2.934 2.568 4.799 6.33 4.799 10.526 0 7.72-6.28 14-14 14s-14-6.281-14-14c0-4.196 1.865-7.958 4.799-10.526l-2.619-6.049-6.821-15.752c-11.162 6.462-18.693 18.527-18.693 32.326 0 20.586 16.748 37.334 37.334 37.334s37.334-16.748 37.334-37.334c0-13.798-7.531-25.864-18.693-32.326z" fill="#eaeaea"/><path d="m110.238 321.74v-43.805h39.968v-25.368h-39.968-24.948-.419v69.173z" fill="#06465e"/><g fill="#fff"><circle cx="97.54" cy="265.086" r="18.667"/><path d="m78.899 372.399 6.821-15.751 2.619-6.049c-2.934-2.568-4.799-6.33-4.799-10.526 0-7.72 6.28-14 14-14s14 6.281 14 14c0 4.196-1.865 7.958-4.799 10.526l2.619 6.049 6.821 15.751c11.162-6.462 18.693-18.527 18.693-32.326 0-20.586-16.748-37.334-37.334-37.334s-37.334 16.748-37.334 37.334c0 13.798 7.531 25.864 18.693 32.326z"/><path d="m336.143 192.881h-160c-16.569 0-30-13.431-30-30v-60c0-16.569 13.431-30 30-30h160c16.569 0 30 13.431 30 30v60c0 16.569-13.431 30-30 30z"/></g><path d="m336.143 72.881h-80.143v120h80.143c16.568 0 30-13.431 30-30v-60c0-16.568-13.431-30-30-30z" fill="#eaeaea"/><path d="m336.143 353.295h-160c-16.569 0-30-13.431-30-30v-70c0-16.569 13.431-30 30-30h160c16.569 0 30 13.431 30 30v70c0 16.569-13.431 30-30 30z" fill="#fff"/><path d="m336.143 223.295h-80.143v130h80.143c16.568 0 30-13.432 30-30v-70c0-16.568-13.431-30-30-30z" fill="#eaeaea"/><path d="m333.748 429.119h-154.11c-12.672 0-22.945-10.273-22.945-22.945 0-12.672 10.273-22.945 22.945-22.945h154.11c12.672 0 22.945 10.273 22.945 22.945-.001 12.672-10.273 22.945-22.945 22.945z" fill="#fff"/><path d="m333.748 383.229h-77.748v45.89h77.748c12.672 0 22.945-10.273 22.945-22.945-.001-12.672-10.273-22.945-22.945-22.945z" fill="#eaeaea"/><circle cx="306.143" cy="132.881" fill="#06465e" r="27.5"/><path d="m306.144 172.881c-22.056 0-40-17.944-40-40s17.944-40 40-40 40 17.944 40 40-17.945 40-40 40zm0-55c-8.271 0-15 6.729-15 15s6.729 15 15 15 15-6.729 15-15-6.729-15-15-15z" fill="#2284ec"/><circle cx="206.143" cy="132.881" fill="#06465e" r="27.5"/><path d="m206.144 172.881c-22.056 0-40-17.944-40-40s17.944-40 40-40 40 17.944 40 40-17.945 40-40 40zm0-55c-8.271 0-15 6.729-15 15s6.729 15 15 15 15-6.729 15-15-6.729-15-15-15z" fill="#27ade5"/></svg>